<svg width="176" height="174" viewBox="0 0 176 174" fill="none" xmlns="http://www.w3.org/2000/svg">
<g clip-path="url(#clip0_7_2)">
<rect x="1" width="174" height="174" rx="14" fill="white"/>
<path d="M60.8106 124.752C65.8986 124.176 68.1066 122.352 68.1066 117.744V64.368C68.1066 59.76 65.8986 57.936 60.8106 57.36V56.112H89.2266C101.803 56.112 111.019 61.872 111.019 71.952C111.019 78.192 106.795 84.816 96.4266 87.12C109.963 89.232 115.627 96.144 115.627 105.744C115.627 118.224 106.699 126 87.4986 126H60.8106V124.752ZM79.3386 117.936C79.3386 122.352 81.5466 124.176 86.5386 124.176H88.8426C97.4826 124.176 103.435 117.648 103.435 106.032C103.435 93.936 96.9066 88.272 83.9466 88.272H79.3386V117.936ZM79.3386 86.256H87.4986C95.5626 86.256 98.8266 81.36 98.8266 72.816C98.8266 62.64 92.6826 57.936 87.4026 57.936H86.1546C81.5466 57.936 79.3386 59.856 79.3386 64.176V86.256Z" fill="black"/>
</g>
<defs>
<clipPath id="clip0_7_2">
<rect width="176" height="174" fill="white"/>
</clipPath>
</defs>
</svg>
